/* XPM */
static char *bd57adcc3b5c4428a9ab7a95ecef81b8pXabSuuBQuJoxDHJ[] = {
/* columns rows colors chars-per-pixel */
"48 48 5 1 ",
"  c #E9D0A7",
". c #E0C093",
"X c #DDBB8C",
"o c #E4C89D",
"O c #E8CEA4",
/* pixels */
"    Oo.X.oO                 Oo.X.oO             ",
" O  Oo.X.oO  O O O O O O O  Oo.X.oO O O O O O O ",
"    Oo.X.oO                 Oo.X.oO             ",
"O   Oo.X.oO  O O O O O O O  Oo.X.oO O O O O O O ",
"  O Oo.X.oO                 Oo.X.oO             ",
"    Oo.X.oO   O O O O O O   Oo.X.oO   O O O O O ",
"    Oo.X.oO                 Oo.X.oO             ",
"OOOOOo.X.oOOOOOOOOOOOOOOOOOOOo.X.oOOOOOOOOOOOOOO",
"ooooo.XXX.ooooooooooooooooooo.XXX.oooooooooooooo",
".....XXXXX...................XXXXX..............",
"XXXXXXXXXXXXXXXXXXXXXXXXXXXXXXXXXXXXXXXXXXXXXXXX",
".................XXXXX...................XXXXX..",
"ooooooooooooooooo.XXX.ooooooooooooooooooo.XXX.oo",
"OOOOOOOOOOOOOOOOOo.X.oOOOOOOOOOOOOOOOOOOOo.X.oO ",
"  O             Oo.X.oO    O            Oo.X.oO ",
"   O  O  O  O   Oo.X.oO      O   O  O   Oo.X.oO ",
" O  O O O O  O  Oo.X.oO  O O  OO  O O   Oo.X.oO ",
"  O        O    Oo.X.oO     O   O       Oo.X.oO ",
"                Oo.X.oO                 Oo.X.oO ",
"OOOOOOOOOOOOOOOOOo.X.oOOOOOOOOOOOOOOOOOOOo.X.oO ",
"ooooooooooooooooo.XXX.ooooooooooooooooooo.XXX.oo",
"..X..............XXXXX.............X.....XXXXX..",
"XXXXXXXXXXXXXXXXXXXXXXXXXXXXXXXXXXXXXXXXXXXXXXXX",
".....XXXXX...................XXXXX..............",
"ooooo.XXX.ooooooooooooooooooo.XXX.oooooooooooooo",
"OOOOOo.X.oOOOOOOOOOOOOOOOOOOOo.X.oOOOOOOOOOOOOOO",
"    Oo.X.oO   O        O    Oo.X.oO             ",
"    Oo.X.oO      O  O   O   Oo.X.oO    O O  O   ",
"    Oo.X.oO  O O O O O O O  Oo.X.oO  O O  O  OO ",
"    Oo.X.oO                 Oo.X.oO        O    ",
"    Oo.X.oO                 Oo.X.oO             ",
"OOOOOo.X.oOOOOOOOOOOOOOOOOOOOo.X.oOOOOOOOOOOOOOO",
"ooooo.XXX.ooooooooooooooooooo.XXX.oooooooooooooo",
".....XXXXX.....X.......X.....XXXXX..............",
"XXXXXXXXXXXXXXXXXXXXXXXXXXXXXXXXXXXXXXXXXXXXXXXX",
".................XXXXX...................XXXXX..",
"ooooooooooooooooo.XXX.ooooooooooooooooooo.XXX.oo",
"OOOOOOOOOOOOOOOOOo.X.oOOOOOOOOOOOOOOOOOOOo.X.oO ",
"  O         O   Oo.X.oO   O        O    Oo.X.oO ",
"   O  O   O     Oo.X.oO      O  O   O   Oo.X.oO ",
" O  O O O O O   Oo.X.oO  O O O O O O O  Oo.X.oO ",
"  O             Oo.X.oO                 Oo.X.oO ",
"                Oo.X.oO                 Oo.X.oO ",
"OOOOOOOOOOOOOOOOOo.X.oOOOOOOOOOOOOOOOOOOOo.X.oO ",
"ooooooooooooooooo.XXX.ooooooooooooooooooo.XXX.oo",
"..................XXX.....................XXX...",
"XXXXXXXXXXXXXXXXXXXXXXXXXXXXXXXXXXXXXXXXXXXXXXXX",
"XXXXXXXXXXXXXXXXXXXXXXXXXXXXXXXXXXXXXXXXXXXXXXXX"
};
