/* XPM */
static char *_d7c78ea2bb043e4e49eed0cb3023824FNQFiJohC8J6fDhG[] = {
/* columns rows colors chars-per-pixel */
"48 48 3 1 ",
"  c #C0D470",
". c #BCD16E",
"X c #B0CA69",
/* pixels */
"                         XX.                    ",
"                         .X.                    ",
"                                       ..       ",
"                                      .XX       ",
"                                      .X.     .X",
"       ..                                     XX",
"       XX.                                    ..",
"       .X.                                      ",
"                                                ",
"                                                ",
"                                                ",
"                                                ",
"                                                ",
"                                                ",
"                                           ..   ",
"                                           XX.  ",
"    .X.                                    .X.  ",
"    XX.                                         ",
"    ..                                          ",
"                                                ",
"..                                              ",
"XX                                              ",
"X.                                              ",
"                                              ..",
"                                              XX",
"                                              .X",
"                                                ",
"                                                ",
"                                         .X.    ",
" ..                                      .XX    ",
" XX.                                      ..    ",
" .X.                                          .X",
"                                              XX",
"                                              ..",
"                                                ",
"                                                ",
"                                                ",
"                                                ",
"                                           ..   ",
"                                           XX.  ",
"  .X.                                      .X.  ",
"  .XX                                           ",
"   ..                                           ",
"       .X.                                      ",
"       XX.     ..             ..                ",
"       ..     .XX            .XX                ",
"              .X.            .X.        .X. .X. ",
"                                        XX. .XX "
};
