/* XPM */
static char *_011ca3555fe42ddbe139205e9743960TaKg5h1NmJzwxbSa[] = {
/* columns rows colors chars-per-pixel */
"48 48 79 1 ",
"  c None",
". c #555681",
"X c #352B8C",
"o c #5C7778",
"O c #627276",
"+ c #505087",
"@ c #5C7879",
"# c #4E3F87",
"$ c #5B7578",
"% c #5F7979",
"& c #4C5F82",
"* c #927274",
"= c None",
"- c #86AA88",
"; c #627F7A",
": c #504086",
"> c #68847C",
", c #646C75",
"< c #866B6C",
"1 c #66867A",
"2 c #C2986D",
"3 c #8D605D",
"4 c #637E7A",
"5 c #6F8D7F",
"6 c #769582",
"7 c #B9926E",
"8 c #5F7A79",
"9 c #81566C",
"0 c #C2986B",
"q c #976A60",
"w c #5F7979",
"e c #B28767",
"r c #63827A",
"t c #9A6F64",
"y c #845A62",
"u c #865E66",
"i c #866662",
"p c #BE966D",
"a c #91615C",
"s c #6ED47F",
"d c #97BC8E",
"f c #6E967C",
"g c #AED499",
"h c #759C7F",
"j c #ABD097",
"k c #9BC090",
"l c #B2D799",
"z c #C3E19A",
"x c #C49A6C",
"c c #65887B",
"v c #90B58B",
"b c #99BE8F",
"n c #BFDE9A",
"m c #92B68C",
"M c #96BA8E",
"N c #B0D699",
"B c #A0C492",
"V c #83A985",
"C c #BADC9A",
"Z c #B7DA99",
"A c #A3C894",
"S c #9E765E",
"D c #70987D",
"F c #6B917B",
"G c #6D957C",
"H c #7EA284",
"J c #A7CC95",
"K c #AD7B5A",
"L c #ADD399",
"P c #8CB08A",
"I c #6B947B",
"U c #B58861",
"Y c #67847C",
"T c #7A9983",
"R c #617F79",
"E c #6C897E",
"W c #719080",
"Q c #BB8F65",
"! c #BE9368",
/* pixels */
"                                                ",
"                 &o$$$$$$$$$$$$,                ",
"              +@@4>EEEEEEEEEEYY;@+              ",
"              @w%>-dBBBBBBBBMPP6w@              ",
"           &o$;6HPBjlCCCCZlCljJP6;$o&           ",
"          &4>YWmJgggNnzzzZNnznlJmWY>4&          ",
"          o>-dAjLgggNnzzzZNnznlLJmP->o          ",
"        &o5HkNCCCZglCnznClgZZZggLJJkH5o&        ",
"       &4>HkjCzzznlCzznCNggNNNNNgggjkH>4&       ",
"       o>-mkjCzzzznnzzCNggNCnnnZgggjkm->o       ",
"       $YdJALlZZnzznZZlggglnzzznZZClkdPY$       ",
"     +@;WAlgggggZnnZggggggNCnnnnzzzCBkmW;@+     ",
"     @w6mjggggggNNNNgggggggNNNNCzzznLjJm6w@     ",
"     O%TkjNgggggggggggggggggggglCZZZNNLkT%O     ",
"     O%TkJjjLgggLjjLggggggggLjjjjLgLjjJkT%O     ",
"     O%TdkkBjgggAkkAggggggggAkkbBjgjBkkdT%O     ",
"     O%TddMkjNggAMMAggggggggAMMMbjljkMmH5o.     ",
"     O%TddMbJjjjBddBjjjjLggjAkkkBJjJbdPY$       ",
"     O%TddddbkkkbddbkkbBjNjBAjjjJkkbdbPY$       ",
"     .o5HmddMkAAABbMMMMdBABdkAAABbMMddmH5o.     ",
"       $YPbddBjjjJkMddddddddddddddddddddT%O     ",
"       $YPbddbkkkkddddddddddddddddddddddT%O     ",
"     .orWvbddddddMdddddddddddddddddddbM-W%O     ",
"     O%chPmmMmvvmddmvvvmMddddddmvvvvvmPhc%O     ",
"     O%cDhhHm-hh-dd-hhhHmdddddd-hhhhhhhfc%O     ",
"     O%cfGIhmVIIVbbVIIFhvddddbbVIIIIIGGfc%O     ",
"     O%cffGhPVGGHvvVhhhHmbMmvvvVhhhhDfGF18@     ",
"     O%cfffDhDffDhhVvvvmMbmHhhhVvvmPhfFY;@+     ",
"     .orcGfDHVVVhIIhVVVVVVHDIGGhVVVVDfFR$       ",
"       $RFfhPmvvHffDfffffffffffDffffffFR$       ",
"       $RFfDhhhhDfffffffffffffffffffffFR$       ",
"       ,;1FffGGGGffffffffffffffffffffF1;,       ",
"        @81FFGffffffffffffffffffGFFFF18@        ",
"        +@;RRcffffffffffffffffffFYRRR;@+        ",
"          ,$$rcccccccccccccccccc1;$$$,          ",
"             o%%%%============%%8@              ",
"             .OO@<iSSSSSSSSSSi<@@+              ",
"                 9aSKKKKKKKKSa9                 ",
"                 OaSUKKKKKKUSaO                 ",
"                +*3SUUUUUUUUS3*+                ",
"             +..&,3SUQQUQ!!!S3,&..+             ",
"            +.##OuqKQx!QxxxxequO##.+            ",
"           +X:##yqe!xxxxxxxx!eqy##:X+           ",
"           +:###<t0xxxxxxxxxx0t<###:+           ",
"           +X:##X*p2220xx0222p*X##:X+           ",
"            +.####****7xx7****9###.+            ",
"             +&.X#XXXX<77<XXXX#X.&+             ",
"                .######X:######.                "
};
