/* XPM */
static char *_11c1f36ee8a487683ea9afcfa7da0aa[] = {
/* columns rows colors chars-per-pixel */
"48 48 4 1 ",
"  c None",
". c #0B0846",
"X c #4C4B55",
"o c white",
/* pixels */
"            ..                      ..          ",
"            .X..                  ..X.          ",
"            .XX...              ...XX.          ",
"           .XXXXX..            ..XXXXX.         ",
"           .XXXXXX...        ...XXXXXX.         ",
"           .XXXXXXX............XXXXXXX.         ",
"           ..XX.....XXXXXXXXXX.....XX..         ",
"            .X..XXXXXXXXXXXXXXXXXX..X.          ",
"            ...XXXXXXXXXXXXXXXXXXXX...          ",
"            ..XXXXXXXXXXXXXXXXXXXXXX..          ",
"            ..XXXXXXXX......XXXXXXXX..          ",
"             .XXXXXXXX.XXXX.XXXXXXXX.           ",
"             .XXXXXXX.XXXXXX.XXXXXXX.           ",
"             .XXXXXXX.XXXXXX.XXXXXXX.           ",
"             .XXXXXXX.XXXXXX.XXXXXXX.           ",
"             .XXXXXXX.XXXXXX.XXXXXXX.           ",
"             .XXXXXXX.XXXXXX.XXXXXXX.           ",
"             .XXXXXXX.XXXXXX.XXXXXXX.           ",
"             ..XXXXXXX.XXXX.XXXXXXX..           ",
"              .XXXXXXX.XXXX.XXXXXXX.            ",
"               .XXXXXX.XXXX.XXXXXX.             ",
"               ..XXXXX.XXXX.XXXXX..             ",
"                ....XX.XXXX.XX....              ",
"                   ....XXXX....                 ",
"                  ...XX.XX.XX...                ",
"                 ..XXXX.XX.XXXX..               ",
"                 .XXXXX.XX.XXXXX.               ",
"                ..XXXXX.XX.XXXXX..              ",
"                .XXXXXX.XX.XXXXXX.              ",
"                .XXXXXX.XX.XXXXXX.              ",
"                .XXXXXX.XX.XXXXXX.              ",
"                .XXXXXX.XX.XXXXXX.              ",
"                ..XXXXXX..XXXXXX..              ",
"                ..XXXXXXXXXXXXXX..              ",
"                ..XXXXXXXXXXXXXX..              ",
"               ..XXXXXXXXXXXXXXXX..             ",
"               ..XXXXXX....XXXXXX..             ",
"              ...XXXXXX.  .XXXXXX...            ",
"              .X.XXXXXX.  .XXXXXX.X.            ",
"             ..X.XXXXXX.  .XXXXXX.X..           ",
"             .XX.XXXXXX.  .XXXXXX.XX.           ",
"             .XX.XXXXXX.  .XXXXXX.XX.           ",
"              .X..XXXX..  ..XXXX..X.            ",
"               ...XXXX.    .XXXX...             ",
"                  .....    .....                ",
"                                                ",
"                                                ",
"                                                "
};
