/* XPM */
static char *_895ce7a29454da98e8be6db5553aa61[] = {
/* columns rows colors chars-per-pixel */
"48 48 14 1 ",
"  c None",
". c #512C2B",
"X c #6C3921",
"o c #743D1E",
"O c #8E4B14",
"+ c #974F11",
"@ c #0B0846",
"# c #4C4B55",
"$ c black",
"% c white",
"& c #5FE800",
"* c #9DFF59",
"= c #A2F5FF",
"- c #FFB2B2",
/* pixels */
"                 ..XooOO  ++++              ++++",
"          @@       XooO           @@            ",
"          @#@@                  @@#@            ",
"          @##@@@              @@@##@            ",
"         @#####@@            @@#####@           ",
"         @######@@@        @@@######@           ",
"         @#######@@@@@@@@@@@@#######@           ",
"         @@#################@######@@           ",
"          @########################@            ",
"          @@#######################@            ",
"          @@#######################@            ",
"          @@#######################@            ",
"           @####@@@########@@@####@             ",
"           @###@$%%$@####@$%%@@###@             ",
"           @##@@%%&&$@##@$&&%%@@##@             ",
"           @##@%%&$$$@##@$$$&%%@##@             ",
"           @##@%%&$%$@##@$%$&%%@##@             ",
"           @##@%%*$$$@##@$$$*%%@##@             ",
"           @##@%%*==@@##@$==*%%@##@             ",
"           @@#@@%%==@####@==%%@@#@@             ",
"            @##@@@@@@####@@@@@@##@              ",
"             @#######@--@#######@               ",
"             @@#######@@#######@@               ",
"              @@@@##########@@@@                ",
"                 @@@@@@@@@@@@                   ",
"                @@@##@##@##@@@                  ",
"               @@###@@##@@###@@                 ",
"               @##@@@####@@@##@                 ",
"              @@#@@########@@#@@                ",
"              @##@##########@##@                ",
"              @##@##########@##@                ",
"              @##@##########@##@                ",
"              @#@@##########@@#@                ",
"              @@@############@@@                ",
"               @@############@@                 ",
"              @@##############@@                ",
"             @@################@@               ",
"             @#####@@@@@@@@#####@               ",
"            @@#####@      @#####@@              ",
"            @######@@    @@######@              ",
"           @@######@@    @@######@@             ",
"           @#######@      @#######@             ",
"           @#######@      @#######@             ",
"            @#####@        @#####@              ",
"             @@@@@          @@@@@               ",
"                                                ",
"                                                ",
"                                                "
};
