/* XPM */
static char *ed9612fdc0e74d0a99fdb68058969056[] = {
/* columns rows colors chars-per-pixel */
"48 48 13 1 ",
"  c #0B0846",
". c None",
"X c #0B0846",
"o c #4C4B55",
"O c #0E0B47",
"+ c #3C3A51",
"@ c black",
"# c white",
"$ c #04031A",
"% c #5FE800",
"& c #FFB2B2",
"* c #9DFF59",
"= c #A2F5FF",
/* pixels */
"                                                ",
"         XXX                                    ",
"        XXoX                      XXXX          ",
"        XoooX                    XXoXX          ",
"       XooooXX       XXXXXXX    XoooX           ",
"      XXoooooXX  XXXXXooooooX  XXoooX           ",
"      XoooooooXXXXoooooooooX   XooooXX          ",
"      XXoooooooooooooooooooX   XoooooXXX        ",
"     XOooooooooooooooooooXXX   XoooooooXXXX     ",
"     X+ooooooooooooooooooXX    XooooooooooX     ",
"     XoooooooooooooooooooX     XXoooooooooXX    ",
"    XoooooooooooooooooooXX       XXooooooooX    ",
"   .XoooooooooooooooooooX         XXoooooooX    ",
"   XXooooooooooooooooooXX          XXooooooX    ",
"   XoooooXXXoooooooooooX            XooooooX    ",
"  XXoooX@##XXoooooooooXX            XXoooooX    ",
"  XoooX$%%##XXooooooooX              XoooooX    ",
" XXoooX@@@%##XooooooooX              XoooooX    ",
" X&XooX@#@%##XooooooooX              XooooX     ",
" XXXooX@@@*##XooooooooX              XooooX     ",
" XXoooX$==*##XooooooooX             XoooooX     ",
" XXooooX==##XooooooooXX             XooooXX     ",
"  XXoooXXXXXXooooooooX              XooooX      ",
"   XXooooooooooooooXXX             XXoooXX      ",
"    XXXoooooooooooXX    XXXXXXXX   XoooXX       ",
"      XXXooooooXXXXXXXXXXoooooooXXXoooXX        ",
"        XXXXXXXXXooooooooooooooooooooX          ",
"             XoooooooooooooooooooooooX          ",
"             XoooooooooooooooooooooXX           ",
"             XooooooooooooooooooooooX           ",
"             XooooooooooooooooooooooX           ",
"             XooooooooooooooooooooooX           ",
"             XooooooooooooooooooooooX           ",
"             XooooooooooXXooooooooooX           ",
"              XoooooooXX XXXooooooooXX          ",
"              XXooooooX     XXooooooX           ",
"               XooooooX      XooooooX           ",
"              XXooooooX       XooooooX          ",
"              XoooooooX       XooooooX          ",
"              XoooooooX       XXoooooX          ",
"              XoooooooX        XoooooX          ",
"              XoooooooX        XoooooX          ",
"              XooooooXX        XoooooX          ",
"               XXoooXX         XXoooXX          ",
"                XXXXX           XXooX           ",
"                                  XXX           ",
"                                                ",
"                                                "
};
