/* XPM */
static char *_7ab8c3e0c5041de876d7a44715b59c3[] = {
/* columns rows colors chars-per-pixel */
"48 48 14 1 ",
"  c #0B0846",
". c #33324F",
"X c None",
"o c #0B0846",
"O c #4C4B55",
"+ c #0E0B47",
"@ c #3C3A51",
"# c white",
"$ c black",
"% c #04031A",
"& c #5FE800",
"* c #FFB2B2",
"= c #9DFF59",
"- c #A2F5FF",
/* pixels */
"                                 ooo            ",
"       oooo                      oOoo           ",
"       ooOoo                    oOOOo           ",
"        oOOOo    ooooooo       ooOOOOo          ",
"        oOOOoo  oOOOOOOooooo  ooOOOOOoo         ",
"       ooOOOOo   oOOOOOOOOOooooOOOOOOOo         ",
"     oooOOOOOo   oOOOOOOOOOOOOOOOOOOOOo         ",
"  ooooOOOOOOOo   oooOOOOOOOOOOOOOOOOOO+o        ",
"  oOOOOOOOOOOo    ooOOOOOOOOOOOOOOOOOO@o        ",
" ooOOOOOOOOOoo     oOOOOOOOOOOOOOOOOOOOo        ",
" oOOOOOOOOoo       ooOOOOOOOOOOOOOOOOOOOo       ",
" oOOOOOOOoo         oOOOOOOOOOOOOOOOOOOOoX....  ",
" oOOOOOOoo          ooOOOOOOOOOOOOOOOOOOoo      ",
" oOOOOOOo            oOOOOOOOOOOOoooOOOOOo      ",
" oOOOOOoo            ooOOOOOOOOOoo##$%OOOoo     ",
" oOOOOOo              oOOOOOOOOoo##&&$oOOOo     ",
" oOOOOOo              oOOOOOOOOo##&$$$oOOOoo    ",
"  oOOOOo              oOOOOOOOOo##&$#$oOOo*o    ",
"  oOOOOo              oOOOOOOOOo##=$$$oOOooo    ",
"  oOOOOOo             oOOOOOOOOo##=--$oOOOoo    ",
"  ooOOOOo             ooOOOOOOOOo##--oOOOOoo    ",
"   oOOOOo              oOOOOOOOOooooooOOOoo     ",
"   ooOOOoo             oooOOOOOOOOOOOOOOoo      ",
"    ooOOOo   oooooooo    ooOOOOOOOOOOOooo       ",
"     ooOOOoooOOOOOOOooooooooooOOOOOOooo         ",
"       oOOOOOOOOOOOOOOOOOOOOooooooooo           ",
"       oOOOOOOOOOOOOOOOOOOOOOOOo                ",
"        ooOOOOOOOOOOOOOOOOOOOOOo                ",
"        oOOOOOOOOOOOOOOOOOOOOOOo                ",
"        oOOOOOOOOOOOOOOOOOOOOOOo                ",
"        oOOOOOOOOOOOOOOOOOOOOOOo                ",
"        oOOOOOOOOOOOOOOOOOOOOOOo                ",
"        oOOOOOOOOOOooOOOOOOOOOOo                ",
"       ooOOOOOOOOooo ooOOOOOOOo                 ",
"        oOOOOOOoo     oOOOOOOoo                 ",
"        oOOOOOOo      oOOOOOOo                  ",
"       oOOOOOOo       oOOOOOOoo                 ",
"       oOOOOOOo       oOOOOOOOo                 ",
"       oOOOOOoo       oOOOOOOOo                 ",
"       oOOOOOo        oOOOOOOOo                 ",
"       oOOOOOo        oOOOOOOOo                 ",
"       oOOOOOo        ooOOOOOOo                 ",
"       ooOOOoo         ooOOOoo                  ",
"        oOOoo           ooooo                   ",
"        ooo                                     ",
"                                                ",
"                                                ",
"                                                "
};
